<?xml version="1.0" encoding="UTF-8"?>
<svg width="67px" height="60px" viewBox="0 0 67 60" version="1.1" xmlns="http://www.w3.org/2000/svg" xmlns:xlink="http://www.w3.org/1999/xlink">
    <!-- Generator: Sketch Beta 54 (76381) - https://sketchapp.com -->
    <title>logo</title>
    <desc>Created with Sketch Beta.</desc>
    <g id="logo" stroke="none" stroke-width="1" fill="none" fill-rule="evenodd">
        <path d="M3.496,57.4973322 C3.496,57.4973322 4.9564,56.9009604 4.9564,54.3161455 C4.9564,51.6318682 3.496,50.9356313 3.496,50.9356313 L3.496,57.4973322 L3.496,57.4973322 Z M60.5308,53.0758854 C60.2388,53.4374937 59.89,53.5373588 59.61,53.5373588 C58.9384,53.5373588 58.79,52.9574969 58.79,52.5926672 C58.79,52.4436749 58.8072,49.9248998 58.8072,49.9248998 C58.8072,48.3512191 57.724,47.6549822 56.4424,47.6549822 C54.7864,47.6549822 54.2096,48.5662512 54.1624,48.6492037 L54.1284,48.6822236 C54.0948,48.6822236 54.0948,48.6657137 54.0948,48.6657137 C53.7004,47.8869269 52.9308,47.6549822 52.1084,47.6549822 C50.7624,47.6549822 50.1216,48.5167214 50.1216,48.5167214 C50.1216,48.5167214 50.0964,47.8204844 49.0976,47.8204844 L47.676,47.8204844 L47.676,48.5215535 C47.676,49.2918839 48.3672,49.312018 48.3672,49.312018 L48.3672,53.1064892 C48.0796,53.4515876 47.7344,53.5538688 47.4632,53.5538688 C46.7888,53.5538688 46.6576,52.9075644 46.6576,52.5596473 L46.6576,47.8369944 C46.6576,47.8208871 45.4432,47.5224998 44.4416,47.5224998 C41.0612,47.5224998 39.9588,49.8918799 39.9588,52.0128053 C39.9588,52.1940121 39.9708,52.4630036 40.018,52.7722633 C39.3784,53.6331971 38.4812,53.9017859 37.7928,53.9017859 C36.3324,53.9017859 35.5768,52.940987 35.5768,51.6979081 C35.5768,49.7763102 36.7408,49.0800733 37.5776,49.0800733 C37.9384,49.0800733 38.1372,49.1795357 38.1372,49.1795357 L38.1372,50.3062396 C38.1372,50.3062396 39.648,50.4608694 39.648,49.3148368 L39.648,47.7874645 C39.648,47.7874645 38.8924,47.5390098 38.0224,47.5390098 C34.1804,47.5390098 33.7692,50.5546943 33.7692,51.730928 C33.7692,52.0961604 33.8108,52.5817948 33.9624,53.0803149 C33.7528,53.4137355 33.4876,53.5204462 33.2768,53.5204462 C32.636,53.5204462 32.6192,52.8411219 32.6192,52.6921296 L32.6192,43.2311193 L31.9336,43.2311193 C30.8336,43.2311193 30.8788,44.7222502 30.8788,44.7222502 L30.8788,47.5390098 C30.7164,47.5390098 30.5512,47.5224998 30.4028,47.5224998 C27.0228,47.5224998 25.9228,49.8918799 25.9228,52.0128053 C25.9228,52.199247 25.9384,52.4670304 25.9892,52.7710552 C25.3244,53.6464856 24.3652,53.9513158 23.5084,53.9513158 C21.1104,53.9513158 21.0628,52.5596473 21.0628,52.4766948 L21.0964,52.4605875 C21.2112,52.4932047 21.67,52.5266273 21.866,52.5266273 C25.2488,52.5266273 25.3132,50.1238247 25.3132,49.8918799 L25.3132,49.87537 C25.3132,47.5555198 23.0804,47.5224998 22.8508,47.5224998 L22.834,47.5224998 C20.5536,47.5224998 19.076,49.1795357 19.076,51.5324058 C19.076,51.8243502 19.0812,52.2632734 19.1804,52.7420621 C18.5152,53.6400427 17.5444,53.9513158 16.678,53.9513158 C14.28,53.9513158 14.2324,52.5596473 14.2324,52.4766948 L14.266,52.4605875 C14.3808,52.4932047 14.8396,52.5266273 15.0356,52.5266273 C18.4184,52.5266273 18.4828,50.1238247 18.4828,49.8918799 L18.4828,49.87537 C18.4828,47.5555198 16.2528,47.5224998 16.0204,47.5224998 L16.0064,47.5224998 C13.7232,47.5224998 12.2456,49.1795357 12.2456,51.5324058 C12.2456,52.5596473 12.31,55.4098295 16.3172,55.4098295 C18.0372,55.4098295 19.1788,54.7067469 19.7628,54.0817847 C20.3188,54.8207059 21.326,55.4098295 23.1472,55.4098295 C24.7772,55.4098295 25.888,54.7784243 26.4968,54.1804417 C26.9108,54.84084 27.6128,55.3764069 28.794,55.3764069 C29.7788,55.3764069 30.6492,54.9624499 31.1108,54.1502406 L31.1588,54.1172207 C31.1752,54.1172207 31.192,54.1172207 31.2088,54.1667506 C31.2088,54.1667506 31.4384,55.310367 32.6696,55.310367 C33.6636,55.310367 34.28,54.7868806 34.6148,54.2956088 C35.1648,54.9322488 36.058,55.4098295 37.4964,55.4098295 C39.0352,55.4098295 40.0044,54.8412427 40.5444,54.2738639 C40.95,54.9141281 41.6312,55.4259367 42.768,55.4259367 C43.7528,55.4259367 44.6876,54.9624499 45.1464,54.1502406 L45.1968,54.1007107 C45.2136,54.1007107 45.2136,54.1172207 45.2304,54.1667506 C45.4432,54.8460749 46.0836,55.310367 46.9708,55.310367 C47.54,55.310367 48.0024,55.158556 48.3668,54.9398997 L48.3668,55.1114422 L50.1216,55.1114422 L50.1216,51.2340186 C50.1216,50.2071798 50.6812,49.312018 51.6324,49.312018 C51.8788,49.312018 52.668,49.4449031 52.668,50.4222119 L52.668,55.1114422 L54.408,55.1114422 L54.408,51.2340186 C54.408,50.2071798 54.9652,49.312018 55.9668,49.312018 C56.2132,49.312018 57.0668,49.4449031 57.0668,50.4222119 L57.0668,53.2723941 C57.0668,54.3656754 57.822,55.3099644 59.1036,55.3099644 C59.6884,55.3099644 60.1604,55.1529184 60.5308,54.9286246 L60.5308,59.6847001 C60.5308,59.6847001 62.288,59.8546318 62.288,58.4158496 L62.288,54.9455373 C62.288,54.9455373 62.7468,55.2435219 63.5192,55.2435219 C66.9328,55.2435219 67,52.0957577 67,51.3999235 C67,48.2018241 64.4564,47.8204844 62.9932,47.8204844 L59.8592,47.8204844 L59.8592,48.5416876 C59.8592,49.347454 60.5308,49.312018 60.5308,49.312018 L60.5308,53.0758854 L60.5308,53.0758854 Z M1.8028,49.2785954 C1.8028,49.2785954 1,49.3768498 1,48.5811505 L1,47.8208871 L1.7864,47.8208871 C1.7864,46.0647915 1.8032,45.2525822 1.8032,45.2030523 C1.8032,42.6021302 5.41,43.1316568 5.41,43.1316568 C5.41,43.1316568 5.298,44.6066805 4.4808,44.6066805 C3.6608,44.6066805 3.496,45.1865424 3.496,45.451507 L3.496,47.8208871 L5.8268,47.8208871 C5.8268,47.8208871 5.8996,49.2794008 4.9396,49.2794008 L4.66,49.2794008 C4.0864,49.2794008 3.56,49.2794008 3.5268,49.2955081 C3.692,49.3623533 6.4508,50.3561721 6.4508,54.3000383 C6.4508,59.0553084 1.8028,60 1.8028,60 L1.8028,49.2794008 L1.8028,49.2785954 Z M7.528,47.8208871 C8.7424,47.8208871 8.4376,49.0800733 8.4376,49.0800733 C8.4376,49.0800733 8.4376,49.1465158 8.4684,49.1465158 C8.4852,49.1465158 8.502,49.1300058 8.5356,49.0800733 C8.5688,49.0301407 9.47,47.6050496 11.3924,47.6050496 C11.5404,47.6050496 11.8512,47.6219623 11.9492,47.6880021 L11.9492,49.7026194 C11.9492,50.7475789 10.4716,50.6376467 10.4716,50.6376467 L10.4716,49.477923 C9.8476,49.477923 9.4056,49.87537 9.1092,50.2897296 C8.5828,51.0354964 8.5356,52.0788451 8.5356,52.410655 L8.5356,55.1114422 L6.778,55.1114422 L6.778,47.8204844 L7.528,47.8204844 L7.528,47.8208871 Z M15.76,49.0136308 C14.6576,49.0136308 14.084,50.0577848 14.084,51.0185838 C14.084,51.0520064 14.266,51.1345561 14.8564,51.1345561 C16.678,51.1345561 16.7116,50.0078523 16.7116,49.8419474 C16.7116,49.0631606 15.9896,49.0136308 15.7604,49.0136308 L15.76,49.0136308 Z M22.588,49.0136308 C21.488,49.0136308 20.9144,50.0577848 20.9144,51.0185838 C20.9144,51.0520064 21.0964,51.1345561 21.6864,51.1345561 C23.5084,51.1345561 23.542,50.0078523 23.542,49.8419474 C23.542,49.0631606 22.82,49.0136308 22.5876,49.0136308 L22.588,49.0136308 Z M30.8788,49.1300058 C30.8788,49.1300058 30.6492,49.0301407 30.0588,49.0301407 C29.2556,49.0301407 27.7616,49.6434252 27.7616,51.7643506 C27.7616,52.1952202 27.7784,53.6368212 29.1412,53.6368212 C30.2548,53.6368212 30.8788,52.6756196 30.8788,51.8303904 L30.8788,49.1300058 L30.8788,49.1300058 Z M44.9168,49.1300058 C44.9168,49.1300058 44.6876,49.0301407 44.0968,49.0301407 C43.2912,49.0301407 41.7968,49.6434252 41.7968,51.7643506 C41.7968,52.1952202 41.814,53.6529285 43.1768,53.6529285 C44.2928,53.6529285 44.9168,52.6756196 44.9168,51.8303904 L44.9168,49.1300058 L44.9168,49.1300058 Z M62.7804,49.2951054 C62.618,49.2951054 62.4532,49.2951054 62.288,49.312018 L62.288,53.2885014 C62.288,53.2885014 62.5508,53.7527936 63.438,53.7527936 C64.8176,53.7527936 65.1448,52.4436749 65.1448,51.466366 C65.1448,49.5938953 63.9304,49.2951054 62.7804,49.2951054 Z M35.6608,31.2469044 C35.7288,31.0065033 35.7632,30.7302636 35.7632,30.4165744 L35.7632,29.8367125 C36.0484409,28.3492629 37.2603446,27.2207237 38.7556,27.050154 L39.118,27.050154 C40.4732,27.050154 41.2076,26.3998228 41.2076,24.9521815 L41.2076,22.8550144 L39.118,22.8550144 C37.7552,22.8550144 37.1356,23.5198421 37.0412,24.6340629 L37.028,24.6340629 C37.0308,24.6735257 37.032,24.7125858 37.0332,24.7520486 C37.0297707,24.818704 37.0280368,24.8854368 37.028,24.9521815 L37.028,25.1116435 C36.9332,26.7320354 35.7304,28.0528319 34.1656,28.3190046 L33.6736,28.3190046 C33.5352,28.3190046 33.4044,28.3258502 33.2816,28.3391387 C31.6508,28.1285361 30.3808,26.7791491 30.2828,25.1124489 L30.2828,24.9521815 C30.2828,24.8966114 30.2816,24.8426521 30.2796,24.7890954 C30.282,24.7371494 30.2852,24.6856061 30.2888,24.6340629 L30.27,24.6340629 C30.1752,23.5198421 29.5556,22.8550144 28.1928,22.8550144 L26.1032,22.8550144 L26.1032,24.9521815 C26.1032,26.3998228 26.838,27.050154 28.1928,27.050154 L28.5552,27.050154 C30.106233,27.2280245 31.3454806,28.4319866 31.5772,29.9861075 C31.5415585,30.1118284 31.5235179,30.2419413 31.5236,30.3726821 L31.5236,33.6166871 C31.5260207,34.3988469 32.1558467,35.0319959 32.9328,35.0333219 L34.2516,35.0333219 C35.0224,35.0333219 35.6608,34.3950712 35.6608,33.6166871 L35.6608,31.2469044 L35.6608,31.2469044 Z M31.5944,7.26961564 C31.5870608,7.36675376 31.5834581,7.4641414 31.5836,7.56155999 C31.5836,8.86624922 31.9752,9.65832444 33.6736,9.65832444 C35.0288,9.65832444 35.7632,9.0087986 35.7632,7.56155999 L35.7632,6.98169811 C36.0479998,5.49608183 37.2572654,4.3682021 38.7504,4.19554231 L39.118,4.19554231 C40.4732,4.19554231 41.2076,3.54480842 41.2076,2.09756981 L41.2076,7.10542736e-15 L39.118,9.96665407e-15 C37.7556,9.96665407e-15 37.1356,0.664425071 37.0412,1.77904846 L37.028,1.77904846 C37.0308,1.81851129 37.032,1.85797411 37.0332,1.89743693 C37.0297721,1.96409235 37.0280382,2.03082513 37.028,2.09756981 L37.028,2.25622647 C36.9332,3.87782632 35.7284,5.19902551 34.162,5.46399017 L33.6736,5.46399017 C33.536,5.46399017 33.4064,5.47083577 33.284,5.48412427 C31.652,5.2747297 30.3808,3.92453742 30.2828,2.25743451 L30.2828,2.09756981 C30.2828,2.04199972 30.2816,1.98763767 30.2796,1.93408098 C30.282,1.88213502 30.2852,1.83059174 30.2888,1.77904846 L30.27,1.77904846 C30.1752,0.664425071 29.5552,7.10542736e-15 28.1928,7.10542736e-15 L26.1032,7.10542736e-15 L26.1032,2.09756981 C26.1032,3.54480842 26.838,4.19554231 28.1928,4.19554231 L28.5604,4.19554231 C30.1604,4.38077597 31.4236,5.66130429 31.5944,7.26961564 Z M31.5944,18.5298085 C31.5870608,18.6269466 31.5834581,18.7243343 31.5836,18.8217529 C31.5836,20.1264421 31.9752,20.917712 33.6736,20.917712 C35.0288,20.917712 35.7632,20.2689915 35.7632,18.8217529 L35.7632,18.241891 C36.0484409,16.7544413 37.2603446,15.6259022 38.7556,15.4553325 L39.118,15.4553325 C40.4732,15.4553325 41.2076,14.8050013 41.2076,13.35736 L41.2076,11.2601929 L39.118,11.2601929 C37.7556,11.2601929 37.136,11.924618 37.0412,13.038436 L37.028,13.038436 C37.0308,13.0787042 37.032,13.118167 37.0332,13.1576298 C37.0297719,13.2242852 37.028038,13.291018 37.028,13.3577627 L37.028,13.5164194 C36.9332,15.1380192 35.7284,16.4596211 34.162,16.7241831 L33.6736,16.7241831 C33.536,16.7241831 33.4064,16.7310287 33.284,16.7443172 C31.652,16.5349226 30.3808,15.1847303 30.2828,13.5176274 L30.2828,13.3577627 C30.2828,13.3021926 30.2816,13.2478306 30.2796,13.1942739 C30.282,13.1423279 30.2852,13.0907846 30.2888,13.038436 L30.2696,13.038436 C30.1748,11.924618 29.5552,11.2601929 28.1928,11.2601929 L26.1032,11.2601929 L26.1032,13.3577627 C26.1032,14.8050013 26.838,15.4553325 28.1928,15.4553325 L28.5552,15.4553325 C30.1575476,15.6390903 31.4196521,16.9158441 31.5944,18.5298085 Z M20.212,24.2458775 C20.2046739,24.3428819 20.2010712,24.4401349 20.2012,24.5374192 C20.2012,25.8429138 20.5924,26.6345863 22.2908,26.6345863 C23.646,26.6345863 24.3808,25.9846578 24.3808,24.5374192 L24.3808,23.9587654 C24.66,22.4857551 25.8728,21.342944 27.3752,21.1709989 L27.7412,21.1709989 C29.0904,21.1709989 29.8312,20.521473 29.8312,19.0742344 L29.8312,16.9766646 L27.7412,16.9766646 C26.3792,16.9766646 25.7544,17.6410897 25.6584,18.7553104 L25.6456,18.7553104 L25.6516,18.851954 C25.6476,18.9244367 25.6456,18.9985302 25.6456,19.0742344 L25.6456,19.3178569 C25.5136,20.901202 24.318,22.182133 22.7804,22.4406548 L22.2908,22.4406548 C22.1548,22.4406548 22.026,22.4475004 21.9044,22.4603862 C20.2752,22.2513943 18.998,20.9007993 18.9004,19.2328911 L18.9004,19.0742344 C18.9004218,19.0199862 18.8992215,18.9657444 18.8968,18.9115509 C18.8992,18.8592023 18.9028,18.8072563 18.906,18.7553104 L18.8872,18.7553104 C18.7924,17.6410897 18.1724,16.9766646 16.8104,16.9766646 L14.72,16.9766646 L14.72,19.0742344 C14.72,20.521473 15.4548,21.1709989 16.81,21.1709989 L17.176,21.1709989 C18.7770079,21.3565119 20.0372106,22.6330208 20.2116,24.2458775 L20.212,24.2458775 Z M43.3808,24.2454749 C43.3734632,24.3426131 43.3698605,24.4400007 43.37,24.5374192 C43.37,25.8429138 43.7612,26.6345863 45.4596,26.6345863 C46.8148,26.6345863 47.5496,25.9846578 47.5496,24.5374192 L47.5496,23.9595707 C47.8284,22.4861578 49.0416,21.3433467 50.544,21.1714015 L50.91,21.1714015 C52.2592,21.1714015 53,20.5218757 53,19.0746371 L53,16.9770673 L50.91,16.9770673 C49.548,16.9770673 48.928,17.6414923 48.8332,18.755713 L48.8144,18.755713 C48.8176,18.8080617 48.8212,18.859605 48.8236,18.9119536 C48.8214294,18.9661537 48.8203626,19.0203929 48.8204,19.0746371 L48.8204,19.2332937 C48.7252,20.855699 47.5144,22.1777035 45.9492,22.4410574 L45.4596,22.4410574 C45.3236,22.4410574 45.1948,22.447903 45.0732,22.4607889 C43.444,22.251797 42.1668,20.901202 42.0692,19.2332937 L42.0692,19.0746371 C42.0692218,19.0203888 42.0680215,18.9661471 42.0656,18.9119536 C42.068,18.859605 42.0716,18.807659 42.0752,18.755713 L42.056,18.755713 C41.9612,17.6414923 41.3412,16.9770673 39.9792,16.9770673 L37.8892,16.9770673 L37.8892,19.0746371 C37.8892,20.5218757 38.624,21.1714015 39.9792,21.1714015 L40.3452,21.1714015 C41.9460753,21.3568782 43.2062362,22.6331775 43.3808,24.2458775 L43.3808,24.2454749 Z M43.3808,12.9228663 C43.3734493,13.0201382 43.3698466,13.1176604 43.37,13.2152133 C43.37,14.5211106 43.7612,15.3123805 45.4596,15.3123805 C46.8148,15.3123805 47.5496,14.6628546 47.5496,13.2152133 L47.5496,12.6369622 C47.8284,11.1635492 49.0416,10.0211408 50.544,9.84919564 L50.91,9.84919564 C52.2592,9.84919564 53,9.1996698 53,7.75162583 L53,5.65486138 L50.91,5.65486138 C49.5476,5.65486138 48.928,6.31888377 48.8332,7.43310448 L48.8144,7.43310448 C48.8176,7.48545312 48.8212,7.5369964 48.8236,7.58934504 C48.821435,7.64341103 48.8203681,7.69751593 48.8204,7.75162583 L48.8204,7.9098798 C48.7252,9.5326877 47.5144,10.8554976 45.9492,11.1188516 L45.4596,11.1188516 C45.3236,11.1188516 45.1948,11.1252945 45.0732,11.138583 C43.444,10.9295911 42.1668,9.57819075 42.0692,7.9098798 L42.0692,7.75162583 C42.0690986,7.69751319 42.0678984,7.64340829 42.0656,7.58934504 C42.068,7.5369964 42.0716,7.48505044 42.0752,7.43310448 L42.056,7.43310448 C41.9612,6.31888377 41.3416,5.65486138 39.9792,5.65486138 L37.8892,5.65486138 L37.8892,7.75162583 C37.8892,9.1996698 38.624,9.84919564 39.9792,9.84919564 L40.3452,9.84919564 C41.9459481,10.0343131 43.2061725,11.3103425 43.3808,12.9228663 L43.3808,12.9228663 Z M20.0916,12.9236717 C20.0841051,13.0206688 20.0803689,13.1179232 20.0804,13.2152133 C20.0804,14.5211106 20.478,15.3123805 22.1704,15.3123805 C23.5256,15.3123805 24.2604,14.6628546 24.2604,13.2152133 L24.2604,12.6361568 C24.5392,11.1631466 25.7524,10.0207381 27.2544,9.84879296 L27.6208,9.84879296 C28.97,9.84879296 29.7108,9.19926712 29.7108,7.75122315 L29.7108,5.65445869 L27.6208,5.65445869 C26.2584,5.65445869 25.6388,6.31848108 25.544,7.43270179 L25.5248,7.43270179 C25.5284,7.48505044 25.532,7.53739908 25.5344,7.5901504 C25.5322517,7.64381402 25.5311849,7.69751597 25.5312,7.75122315 L25.5312,7.90746371 C25.4368,9.53107697 24.2256,10.8550949 22.6596,11.1184489 L22.1704,11.1184489 C22.0344,11.1184489 21.906,11.1248918 21.7844,11.1381803 C20.1552,10.9295911 18.8776,9.57819075 18.7796,7.90947712 L18.7796,7.75122315 C18.7796,7.69605573 18.7788,7.64209636 18.7764,7.58894236 C18.7788,7.53659371 18.7824,7.48464775 18.7856,7.43270179 L18.7668,7.43270179 C18.672,6.31848108 18.0524,5.65445869 16.69,5.65445869 L14.6,5.65445869 L14.6,7.75122315 C14.6,9.19926712 15.3348,9.84879296 16.69,9.84879296 L17.056,9.84879296 C18.6570133,10.0339831 19.9173215,11.3104318 20.0916,12.923269 L20.0916,12.9236717 Z M22.1704,9.84919564 C23.5256,9.84919564 24.2604,9.1996698 24.2604,7.75162583 C24.2604,6.91042342 23.658,5.65486138 22.1704,5.65486138 C20.6888,5.65486138 20.0804,6.44653392 20.0804,7.75162583 C20.0804,9.05712042 20.8212,9.84919564 22.1704,9.84919564 Z M45.4596,9.84919564 C46.8148,9.84919564 47.5496,9.1996698 47.5496,7.75162583 C47.5496,6.91042342 46.9472,5.65486138 45.4596,5.65486138 C43.972,5.65486138 43.37,6.44653392 43.37,7.75162583 C43.37,9.05712042 44.1108,9.84919564 45.4596,9.84919564 Z M45.4596,21.1709989 C46.8148,21.1709989 47.5496,20.521473 47.5496,19.0742344 C47.5496,18.2326293 46.9472,16.9766646 45.4596,16.9766646 C43.972,16.9766646 43.37,17.7691425 43.37,19.0742344 C43.37,20.3801317 44.1108,21.1709989 45.4596,21.1709989 Z M22.2908,21.1709989 C23.646,21.1709989 24.3808,20.521473 24.3808,19.0742344 C24.3808,18.2326293 23.7784,16.9766646 22.2908,16.9766646 C20.8032,16.9766646 20.2012,17.7691425 20.2012,19.0742344 C20.2012,20.3801317 20.936,21.1709989 22.2908,21.1709989 Z M33.6736,15.4553325 C35.0288,15.4553325 35.7632,14.8050013 35.7632,13.35736 C35.7632,12.5157549 35.1612,11.2601929 33.6736,11.2601929 C32.1856,11.2601929 31.5836,12.0522681 31.5836,13.3577627 C31.5836,14.6628546 32.3184,15.4553325 33.6736,15.4553325 L33.6736,15.4553325 Z M33.6736,27.050154 C35.0288,27.050154 35.7632,26.3998228 35.7632,24.9521815 C35.7632,24.1113818 35.1612,22.8550144 33.6736,22.8550144 C32.1856,22.8550144 31.5836,23.6474923 31.5836,24.9521815 C31.5836,26.2580788 32.3184,27.050154 33.6736,27.050154 L33.6736,27.050154 Z M33.6736,4.19554231 C35.0288,4.19554231 35.7632,3.54480842 35.7632,2.09756981 C35.7632,1.25596473 35.1612,0 33.6736,0 C32.1856,0 31.5836,0.792075221 31.5836,2.09756981 C31.5836,3.40266173 32.3184,4.19554231 33.6736,4.19554231 L33.6736,4.19554231 Z" id="Shape" fill="#FFFFFF"></path>
    </g>
</svg>
