<?xml version="1.0" encoding="UTF-8"?>
<svg width="128px" height="128px" viewBox="0 0 128 128" version="1.1" xmlns="http://www.w3.org/2000/svg" xmlns:xlink="http://www.w3.org/1999/xlink">
    <!-- Generator: Sketch 54.1 (76490) - https://sketchapp.com -->
    <title>favicon</title>
    <desc>Created with Sketch.</desc>
    <g id="favicon" stroke="none" stroke-width="1" fill="none" fill-rule="evenodd">
        <path d="M63.7079787,19.9126783 C59.1963271,19.9126783 56.7497272,17.2839627 56.7497272,12.955341 C56.7497272,8.62721835 58.7553499,6 63.7079787,6 C68.660608,6 70.6657309,10.1639215 70.6657309,12.955341 C70.6657309,17.7546061 68.219131,19.9126783 63.7079787,19.9126783 Z M74.9256814,11.8992631 C75.242306,8.2064841 77.3003663,6 81.8344914,6 L88.7922435,6 L88.7922435,12.955341 C88.7922435,17.7546061 86.346143,19.9126783 81.8344914,19.9126783 L80.6304186,19.9126783 C75.6118676,20.4826409 71.5866393,24.2777337 70.6657309,29.1708281 L70.6657309,31.0743636 C70.6657309,35.8736287 68.219131,38.0282073 63.7079787,38.0282073 C58.0531824,38.0282073 56.7497272,35.4009889 56.7497272,31.0743636 C56.7497272,30.7529486 56.6932427,30.4249825 56.7157161,30.122533 C56.1608734,24.7672798 52.0113446,20.5200728 46.6651819,19.9126783 L45.4611092,19.9126783 C40.9494574,19.9126783 38.5028577,17.7546061 38.5028577,12.955341 L38.5028577,6 L45.4611092,6 C49.9947349,6 52.0527954,8.2064841 52.36942,11.8992631 C52.3987185,12.1800853 52.4108707,12.3910347 52.4058769,12.5321113 C52.4103715,12.6728551 52.4188615,12.8106044 52.4188615,12.955341 L52.4188615,13.4559299 C52.7329889,19.0153116 56.9959355,23.5131254 62.4614564,24.1883963 C63.4629353,24.2650561 63.4699656,24.2623466 63.9114421,24.2623466 C64.2057598,24.2623466 64.6741364,24.2145719 65.3165719,24.1190226 C70.5483703,23.2461113 74.5716007,18.8511104 74.8767392,13.456429 L74.8767392,12.955341 C74.8767392,12.7537079 74.8852292,12.5595613 74.8942186,12.3649156 C74.8925537,12.2614373 74.9030413,12.1062197 74.9256814,11.8992631 Z M25.205121,38.7491139 C20.6934694,38.7491139 18.2468695,36.1203983 18.2468695,31.7917766 C18.2468695,27.463654 20.2524922,24.8364356 25.205121,24.8364356 C30.1577503,24.8364356 32.1628732,29.0003571 32.1628732,31.7917766 C32.1628732,36.5910417 29.7162733,38.7491139 25.205121,38.7491139 Z M36.4228236,30.7356987 C36.7394483,27.0429197 38.7975086,24.8364356 43.3316337,24.8364356 L50.2893858,24.8364356 L50.2893858,31.7917766 C50.2893858,36.5910417 47.8432853,38.7491139 43.3316337,38.7491139 L42.1275608,38.7491139 C37.1090099,39.3190766 33.0837815,43.1141694 32.1628732,48.0072637 L32.1628732,49.9107992 C32.1628732,54.7100643 29.7162733,56.8646429 25.205121,56.8646429 C19.5503247,56.8646429 18.2468695,54.2374245 18.2468695,49.9107992 C18.2468695,49.5893842 18.190385,49.2614182 18.2128584,48.9589686 C17.6580157,43.6037154 13.5084869,39.3565085 8.16232413,38.7491139 L6.95825151,38.7491139 C2.44659972,38.7491139 8.52651283e-14,36.5910417 8.52651283e-14,31.7917766 L8.52651283e-14,24.8364356 L6.95825151,24.8364356 C11.4918772,24.8364356 13.5499377,27.0429197 13.8665623,30.7356987 C13.8958607,31.0165209 13.908013,31.2274703 13.9030191,31.3685469 C13.9075138,31.5092907 13.9160038,31.64704 13.9160038,31.7917766 L13.9160038,32.2923655 C14.2301312,37.8517472 18.4930778,42.349561 23.9585986,43.024832 C24.9600776,43.1014917 24.9671079,43.0987822 25.4085844,43.0987822 C25.702902,43.0987822 26.1712786,43.0510076 26.8137142,42.9554582 C32.0455126,42.082547 36.068743,37.6875461 36.3738815,32.2928646 L36.3738815,31.7917766 C36.3738815,31.5901436 36.3823715,31.395997 36.3913609,31.2013512 C36.389696,31.0978729 36.4001836,30.9426554 36.4228236,30.7356987 Z M102.915735,38.7491139 C98.4040835,38.7491139 95.9574837,36.1203983 95.9574837,31.7917766 C95.9574837,27.463654 97.9631064,24.8364356 102.915735,24.8364356 C107.868364,24.8364356 109.873487,29.0003571 109.873487,31.7917766 C109.873487,36.5910417 107.426887,38.7491139 102.915735,38.7491139 Z M114.133438,30.7356987 C114.450062,27.0429197 116.508123,24.8364356 121.042248,24.8364356 L128,24.8364356 L128,31.7917766 C128,36.5910417 125.553899,38.7491139 121.042248,38.7491139 L119.838175,38.7491139 C114.819624,39.3190766 110.794396,43.1141694 109.873487,48.0072637 L109.873487,49.9107992 C109.873487,54.7100643 107.426887,56.8646429 102.915735,56.8646429 C97.2609389,56.8646429 95.9574837,54.2374245 95.9574837,49.9107992 C95.9574837,49.5893842 95.9009992,49.2614182 95.9234726,48.9589686 C95.3686298,43.6037154 91.219101,39.3565085 85.8729383,38.7491139 L84.6688657,38.7491139 C80.1572139,38.7491139 77.7106142,36.5910417 77.7106142,31.7917766 L77.7106142,24.8364356 L84.6688657,24.8364356 C89.2024914,24.8364356 91.2605519,27.0429197 91.5771765,30.7356987 C91.6064749,31.0165209 91.6186272,31.2274703 91.6136333,31.3685469 C91.618128,31.5092907 91.626618,31.64704 91.626618,31.7917766 L91.626618,32.2923655 C91.9407454,37.8517472 96.203692,42.349561 101.669213,43.024832 C102.670692,43.1014917 102.677722,43.0987822 103.119199,43.0987822 C103.413516,43.0987822 103.881893,43.0510076 104.524328,42.9554582 C109.756127,42.082547 113.779357,37.6875461 114.084496,32.2928646 L114.084496,31.7917766 C114.084496,31.5901436 114.092986,31.395997 114.101975,31.2013512 C114.10031,31.0978729 114.110798,30.9426554 114.133438,30.7356987 Z M63.8097487,57.2876386 C59.2980971,57.2876386 56.8514972,54.658923 56.8514972,50.3303013 C56.8514972,46.0021787 58.8571199,43.3749603 63.8097487,43.3749603 C68.762378,43.3749603 70.7675009,47.5388818 70.7675009,50.3303013 C70.7675009,55.1295664 68.320901,57.2876386 63.8097487,57.2876386 Z M75.0274513,49.2742234 C75.344076,45.5814444 77.4021363,43.3749603 81.9362613,43.3749603 L88.8940135,43.3749603 L88.8940135,50.3303013 C88.8940135,55.1295664 86.447913,57.2876386 81.9362613,57.2876386 L80.7321885,57.2876386 C75.7136376,57.8576013 71.6884092,61.6526941 70.7675009,66.5457884 L70.7675009,68.4493239 C70.7675009,73.248589 68.320901,75.4031676 63.8097487,75.4031676 C58.1549524,75.4031676 56.8514972,72.7759492 56.8514972,68.4493239 C56.8514972,68.1279089 56.7950127,67.7999429 56.8174861,67.4974933 C56.2626433,62.1422401 52.1131145,57.8950332 46.7669518,57.2876386 L45.5628792,57.2876386 C41.0512274,57.2876386 38.6046277,55.1295664 38.6046277,50.3303013 L38.6046277,43.3749603 L45.5628792,43.3749603 C50.0965049,43.3749603 52.1545654,45.5814444 52.47119,49.2742234 C52.5004884,49.5550456 52.5126407,49.765995 52.5076468,49.9070716 C52.5121415,50.0478154 52.5206315,50.1855648 52.5206315,50.3303013 L52.5206315,50.8308902 C52.8347589,56.3902719 57.0977055,60.8880857 62.5632263,61.5633567 C63.5647053,61.6400164 63.5717356,61.637307 64.0132121,61.637307 C64.3075297,61.637307 64.7759063,61.5895323 65.4183419,61.4939829 C70.6501403,60.6210717 74.6733707,56.2260708 74.9785092,50.8313893 L74.9785092,50.3303013 C74.9785092,50.1286683 74.9869992,49.9345217 74.9959886,49.7398759 C74.9943237,49.6363976 75.0048113,49.4811801 75.0274513,49.2742234 Z M25.205121,76.8282458 C20.6934694,76.8282458 18.2468695,74.1995302 18.2468695,69.8709085 C18.2468695,65.5427858 20.2524922,62.9155675 25.205121,62.9155675 C30.1577503,62.9155675 32.1628732,67.0794889 32.1628732,69.8709085 C32.1628732,74.6701736 29.7162733,76.8282458 25.205121,76.8282458 Z M36.4228236,68.8148305 C36.7394483,65.1220516 38.7975086,62.9155675 43.3316337,62.9155675 L50.2893858,62.9155675 L50.2893858,69.8709085 C50.2893858,74.6701736 47.8432853,76.8282458 43.3316337,76.8282458 L42.1275608,76.8282458 C37.1090099,77.3982084 33.0837815,81.1933012 32.1628732,86.0863955 L32.1628732,87.989931 C32.1628732,92.7891961 29.7162733,94.9437748 25.205121,94.9437748 C19.5503247,94.9437748 18.2468695,92.3165564 18.2468695,87.989931 C18.2468695,87.668516 18.190385,87.34055 18.2128584,87.0381004 C17.6580157,81.6828472 13.5084869,77.4356403 8.16232413,76.8282458 L6.95825151,76.8282458 C2.44659972,76.8282458 8.52651283e-14,74.6701736 8.52651283e-14,69.8709085 L8.52651283e-14,62.9155675 L6.95825151,62.9155675 C11.4918772,62.9155675 13.5499377,65.1220516 13.8665623,68.8148305 C13.8958607,69.0956528 13.908013,69.3066022 13.9030191,69.4476787 C13.9075138,69.5884226 13.9160038,69.7261719 13.9160038,69.8709085 L13.9160038,70.3714973 C14.2301312,75.930879 18.4930778,80.4286928 23.9585986,81.1039638 C24.9600776,81.1806235 24.9671079,81.1779141 25.4085844,81.1779141 C25.702902,81.1779141 26.1712786,81.1301394 26.8137142,81.03459 C32.0455126,80.1616788 36.068743,75.7666779 36.3738815,70.3719964 L36.3738815,69.8709085 C36.3738815,69.6692754 36.3823715,69.4751288 36.3913609,69.280483 C36.389696,69.1770047 36.4001836,69.0217872 36.4228236,68.8148305 Z M102.915735,76.8282458 C98.4040835,76.8282458 95.9574837,74.1995302 95.9574837,69.8709085 C95.9574837,65.5427858 97.9631064,62.9155675 102.915735,62.9155675 C107.868364,62.9155675 109.873487,67.0794889 109.873487,69.8709085 C109.873487,74.6701736 107.426887,76.8282458 102.915735,76.8282458 Z M114.133438,68.8148305 C114.450062,65.1220516 116.508123,62.9155675 121.042248,62.9155675 L128,62.9155675 L128,69.8709085 C128,74.6701736 125.553899,76.8282458 121.042248,76.8282458 L119.838175,76.8282458 C114.819624,77.3982084 110.794396,81.1933012 109.873487,86.0863955 L109.873487,87.989931 C109.873487,92.7891961 107.426887,94.9437748 102.915735,94.9437748 C97.2609389,94.9437748 95.9574837,92.3165564 95.9574837,87.989931 C95.9574837,87.668516 95.9009992,87.34055 95.9234726,87.0381004 C95.3686298,81.6828472 91.219101,77.4356403 85.8729383,76.8282458 L84.6688657,76.8282458 C80.1572139,76.8282458 77.7106142,74.6701736 77.7106142,69.8709085 L77.7106142,62.9155675 L84.6688657,62.9155675 C89.2024914,62.9155675 91.2605519,65.1220516 91.5771765,68.8148305 C91.6064749,69.0956528 91.6186272,69.3066022 91.6136333,69.4476787 C91.618128,69.5884226 91.626618,69.7261719 91.626618,69.8709085 L91.626618,70.3714973 C91.9407454,75.930879 96.203692,80.4286928 101.669213,81.1039638 C102.670692,81.1806235 102.677722,81.1779141 103.119199,81.1779141 C103.413516,81.1779141 103.881893,81.1301394 104.524328,81.03459 C109.756127,80.1616788 113.779357,75.7666779 114.084496,70.3719964 L114.084496,69.8709085 C114.084496,69.6692754 114.092986,69.4751288 114.101975,69.280483 C114.10031,69.1770047 114.110798,69.0217872 114.133438,68.8148305 Z M63.8097487,95.3667705 C59.2980971,95.3667705 56.8514972,92.7380549 56.8514972,88.4094332 C56.8514972,84.0813105 58.8571199,81.4540922 63.8097487,81.4540922 C68.762378,81.4540922 70.7675009,85.6180136 70.7675009,88.4094332 C70.7675009,93.2086983 68.320901,95.3667705 63.8097487,95.3667705 Z M75.0274513,87.3533552 C75.344076,83.6605763 77.4021363,81.4540922 81.9362613,81.4540922 L88.8940135,81.4540922 L88.8940135,88.4094332 C88.8940135,93.2086983 86.447913,95.3667705 81.9362613,95.3667705 L80.7321885,95.3667705 C75.7136376,95.9367331 71.6884092,99.7318259 70.7675009,104.62492 L70.7675009,115.046156 C70.7675009,119.845421 68.320901,122 63.8097487,122 C58.1549524,122 56.8514972,119.372782 56.8514972,115.046156 C56.8514972,114.724741 56.7950127,105.879075 56.8174861,105.576625 C56.2626433,100.221372 52.1131145,95.974165 46.7669518,95.3667705 L45.5628792,95.3667705 C41.0512274,95.3667705 38.6046277,93.2086983 38.6046277,88.4094332 L38.6046277,81.4540922 L45.5628792,81.4540922 C50.0965049,81.4540922 52.1545654,83.6605763 52.47119,87.3533552 C52.5004884,87.6341775 52.5126407,87.8451269 52.5076468,87.9862034 C52.5121415,88.1269473 52.5206315,88.2646966 52.5206315,88.4094332 L52.5206315,88.910022 C52.8347589,94.4694037 57.0977055,98.9672175 62.5632263,99.6424885 C63.5647053,99.7191482 63.5717356,99.7164388 64.0132121,99.7164388 C64.3075297,99.7164388 64.7759063,99.6686641 65.4183419,99.5731147 C70.6501403,98.7002035 74.6733707,94.3052026 74.9785092,88.9105211 L74.9785092,88.4094332 C74.9785092,88.2078001 74.9869992,88.0136535 74.9959886,87.8190078 C74.9943237,87.7155294 75.0048113,87.5603119 75.0274513,87.3533552 Z" id="Combined-Shape" fill="#2972E4" fill-rule="nonzero"></path>
    </g>
</svg>